<svg width="24" height="24" viewBox="0 0 24 24" fill="none" xmlns="http://www.w3.org/2000/svg">
<path fill-rule="evenodd" clip-rule="evenodd" d="M13.46 2.81002L19.46 6.14002C20.4136 6.67124 21.0034 7.67847 21 8.77002V15.23C21.0034 16.3216 20.4136 17.3288 19.46 17.86L13.46 21.19C12.5524 21.6957 11.4477 21.6957 10.54 21.19L4.54001 17.86C3.58644 17.3288 2.99666 16.3216 3.00001 15.23V8.77002C2.99666 7.67847 3.58644 6.67124 4.54001 6.14002L10.54 2.81002C11.4477 2.30437 12.5524 2.30437 13.46 2.81002ZM13.23 11.87L17.46 9.52002H17.42C17.7414 9.29331 17.833 8.85686 17.63 8.52002C17.429 8.17067 16.9902 8.03902 16.63 8.22002L12.41 10.57C12.127 10.7127 11.7931 10.7127 11.51 10.57L7.29001 8.22002C6.92987 8.03902 6.49105 8.17067 6.29001 8.52002C6.10187 8.87709 6.23003 9.31902 6.58001 9.52002L10.85 11.87C11.0105 11.9611 11.1819 12.0317 11.36 12.08V16.5C11.4023 16.8518 11.7007 17.1165 12.055 17.1165C12.4093 17.1165 12.7077 16.8518 12.75 16.5V12.07C12.9167 12.0206 13.0776 11.9535 13.23 11.87Z" fill="url(#paint0_linear_0_122)"/>
<defs>
<linearGradient id="paint0_linear_0_122" x1="3" y1="12" x2="21" y2="12" gradientUnits="userSpaceOnUse">
<stop stop-color="#E68F50"/>
<stop offset="1" stop-color="#DB2268"/>
</linearGradient>
</defs>
</svg>
