<svg width="20" height="20" viewBox="0 0 20 20" fill="none" xmlns="http://www.w3.org/2000/svg">
<path fill-rule="evenodd" clip-rule="evenodd" d="M13.75 0.25H6.25C2.93629 0.25 0.25 2.93629 0.25 6.25V13.75C0.25 17.0637 2.93629 19.75 6.25 19.75H13.75C15.3413 19.75 16.8674 19.1179 17.9926 17.9926C19.1179 16.8674 19.75 15.3413 19.75 13.75V6.25C19.75 2.93629 17.0637 0.25 13.75 0.25ZM8 1.75H12C11.9682 1.82957 11.9512 1.91431 11.95 2V4C11.95 4.69036 11.3904 5.25 10.7 5.25H9.33C8.63964 5.25 8.08 4.69036 8.08 4V2C8.06934 1.91237 8.04219 1.82754 8 1.75ZM13.72 18.25C16.203 18.2445 18.2145 16.233 18.22 13.75L18.25 6.25C18.2445 3.767 16.233 1.7555 13.75 1.75H13.37C13.3973 1.83086 13.4141 1.91487 13.42 2V4C13.42 5.51878 12.1888 6.75 10.67 6.75H9.33C7.81122 6.75 6.58 5.51878 6.58 4V2C6.58593 1.91487 6.60274 1.83086 6.63 1.75H6.25C3.767 1.7555 1.7555 3.767 1.75 6.25V13.75C1.7555 16.233 3.767 18.2445 6.25 18.25H13.72Z" fill="#666666"/>
</svg>
