<svg width="24" height="24" viewBox="0 0 24 24" fill="none" xmlns="http://www.w3.org/2000/svg">
<path fill-rule="evenodd" clip-rule="evenodd" d="M15.75 2.25H8.25C4.93629 2.25 2.25 4.93629 2.25 8.25V15.75C2.25 19.0637 4.93629 21.75 8.25 21.75H15.75C17.3413 21.75 18.8674 21.1179 19.9926 19.9926C21.1179 18.8674 21.75 17.3413 21.75 15.75V8.25C21.75 4.93629 19.0637 2.25 15.75 2.25ZM10 3.75H14C13.9682 3.82957 13.9512 3.91431 13.95 4V6C13.95 6.69036 13.3904 7.25 12.7 7.25H11.33C10.6396 7.25 10.08 6.69036 10.08 6V4C10.0693 3.91237 10.0422 3.82754 10 3.75ZM15.72 20.25C18.203 20.2445 20.2145 18.233 20.22 15.75L20.25 8.25C20.2445 5.767 18.233 3.7555 15.75 3.75H15.37C15.3973 3.83086 15.4141 3.91487 15.42 4V6C15.42 7.51878 14.1888 8.75 12.67 8.75H11.33C9.81122 8.75 8.58 7.51878 8.58 6V4C8.58593 3.91487 8.60274 3.83086 8.63 3.75H8.25C5.767 3.7555 3.7555 5.767 3.75 8.25V15.75C3.7555 18.233 5.767 20.2445 8.25 20.25H15.72Z" fill="#666666"/>
<path d="M12.5098 17.1103C12.4405 17.1781 12.3591 17.2324 12.2698 17.2703C12.0881 17.3499 11.8815 17.3499 11.6998 17.2703C11.6074 17.2326 11.5227 17.1784 11.4498 17.1103L9.44981 15.1103C9.15736 14.8175 9.15736 14.3431 9.44981 14.0503C9.5891 13.9074 9.78022 13.8267 9.97981 13.8267C10.1794 13.8267 10.3705 13.9074 10.5098 14.0503L11.2098 14.7503V12.0003C11.2098 11.5861 11.5456 11.2503 11.9598 11.2503C12.374 11.2503 12.7098 11.5861 12.7098 12.0003V14.7703L13.4198 14.0703C13.559 13.9277 13.7505 13.8482 13.9498 13.8503C14.1489 13.8494 14.3399 13.9287 14.4798 14.0703C14.7723 14.3631 14.7723 14.8375 14.4798 15.1303L12.5098 17.1103Z" fill="#666666"/>
</svg>
